IKResults																																											
version=1																																											
nRows=24																																											
nColumns=44																																											
inDegrees=yes																																											
																																											
Units are S.I. units (second, meters, Newtons, ...)																																											
Angles are in degrees.																																											
																																											
endheader																																											
time	ground_spine_rot_x	ground_spine_rot_y	ground_spine_rot_z	ground_spine_tx	ground_spine_ty	ground_spine_tz	clav_prot	clav_elev	scapula_abduction	scapula_elevation	scapula_upward_rot	scapula_winging	plane_elv	shoulder_elv	axial_rot	elbow_flexion	pro_sup	clav_prot_l	clav_elev_l	pitch2	roll2	yaw2	aux7jnt_r3	aux7jnt_r1	aux7jnt_r2	aux6jnt_r3	aux6jnt_r1	aux6jnt_r2	aux5jnt_r3	aux5jnt_r1	aux5jnt_r2	aux4jnt_r3	aux4jnt_r1	aux4jnt_r2	aux3jnt_r3	aux3jnt_r1	aux3jnt_r2	pitch1	roll1	yaw1	aux1jnt_r3	aux1jnt_r1	aux1jnt_r2
1.9	1.33981504	-4.07693219	0.83528543	0.07445961	1.10393142	0.86745386	-32.12633211	20.62709284	-16.76515517	3.81664309	14.35352389	22.6357664	-37.47142483	16.16611928	41.55383074	0	34.32	30.42326055	-1.1607173	0.02354984	-0.07758553	0.00971763	0.25232056	-0.60900876	0.10467446	0.29684699	-0.69791625	0.12193453	0.29684699	-0.96018913	0.12193453	0.22263524	-0.96018913	0.12193453	0.14842349	-0.87128419	0.05233723	-0.21658623	0.02309375	0.02315848	-6.89966575	0.66158733	0.14728433
1.91	1.37537703	-4.06452059	0.84603661	0.07439212	1.10383728	0.86736384	-32.12368389	20.59256105	-16.84325737	3.81491967	14.2705914	22.66646824	-36.9011731	16.23156008	40.94298115	0	34.32	30.42326055	-1.1607173	0.02400579	-0.08008036	0.01013348	0.25720572	-0.62859197	0.10915387	0.30259423	-0.72035835	0.12715257	0.30259423	-0.99106484	0.12715257	0.22694567	-0.99106484	0.12715257	0.15129711	-0.89930109	0.05457694	-0.21747607	0.02582208	0.02292742	-6.92801301	0.73974799	0.14581483
1.92	1.36511519	-4.07532839	0.8442464	0.07413831	1.1037911	0.86751201	-31.85793058	20.45792668	-16.64988348	3.85143764	13.82582532	22.68547686	-35.68845491	16.53279174	39.76740128	0	34.32	30.42326055	-1.1607173	0.02255919	-0.07781924	0.00995203	0.24170635	-0.61084332	0.10719939	0.28435972	-0.70001863	0.12487581	0.28435972	-0.96308157	0.12487581	0.21326979	-0.96308157	0.12487581	0.14217986	-0.87390882	0.05359969	-0.21640002	0.02400213	0.0227291	-6.89373375	0.68761037	0.14455353
1.93	1.36955773	-4.03668452	0.83799501	0.07398709	1.10371902	0.86752609	-32.33724665	20.11745893	-14.89323039	2.62235249	16.08642469	21.85432807	-49.95480759	16.28977888	52.45566877	0	34.32	30.42326055	-1.1607173	0.02474544	-0.07609881	0.00803288	0.26513059	-0.59733877	0.08652707	0.31191757	-0.68454258	0.10079477	0.31191757	-0.94178971	0.10079477	0.23393818	-0.94178971	0.10079477	0.15595879	-0.8545884	0.04326353	-0.21860211	0.02167227	0.02383718	-6.96388449	0.62086478	0.15160077
1.94	1.3610738	-4.0439215	0.83796751	0.07378566	1.10358298	0.86770552	-32.04281674	19.98858063	-14.92646111	2.7445991	15.4263399	21.95696552	-47.23476383	16.57977822	48.87288971	0	34.32	30.42326055	-1.1607173	0.02531175	-0.07620418	-0.00522294	0.27119825	-0.59816582	-0.05625942	0.31905598	-0.68549038	-0.0655362	0.31905598	-0.94309369	-0.0655362	0.23929198	-0.94309369	-0.0655362	0.15952799	-0.85577164	-0.02812971	-0.21888142	0.02075234	0.03730932	-6.97278236	0.59451063	0.23728143
1.95	1.36697708	-4.03955482	0.84461675	0.07359998	1.10337693	0.86781686	-31.54990815	19.96577777	-16.44984438	3.61815506	13.15198983	22.71063452	-34.64551448	17.20650511	38.25593966	0	34.32	30.42326055	-1.1607173	0.02548365	-0.07595614	0.00721246	0.27303996	-0.59621884	0.07768975	0.3212227	-0.68325917	0.09050024	0.3212227	-0.940024	0.09050024	0.24091702	-0.940024	0.09050024	0.16061135	-0.85298617	0.03884488	-0.21992697	0.02240351	0.0255462	-7.0060897	0.64181315	0.16246982
1.96	1.37831958	-4.01991692	0.85043602	0.07341207	1.10317291	0.86782635	-31.13855493	19.87158438	-17.40766298	4.22679071	11.40781931	23.25699509	-26.41853242	18.10466541	30.78524287	0	34.32	30.42326055	-1.1607173	0.02572458	-0.07399646	0.00984186	0.27562141	-0.58083631	0.10601259	0.32425968	-0.66563098	0.12349332	0.32425968	-0.91577124	0.12349332	0.24319476	-0.91577124	0.12349332	0.16212984	-0.83097901	0.0530063	-0.22103984	0.01987567	0.02239557	-7.04154204	0.5693959	0.1424323
1.97	1.30710474	-4.09340694	0.88163135	0.07335092	1.1030526	0.86842498	-31.25452948	19.11754887	-13.1890316	2.04434315	14.95507753	21.5336996	-49.74528565	17.70496811	50.10840466	0	34.32	30.42326055	-1.1607173	0.02332423	-0.06957388	0.00942316	0.24990331	-0.5461212	0.10150261	0.29400317	-0.62584791	0.11823967	0.29400317	-0.86103792	0.11823967	0.22050238	-0.86103792	0.11823967	0.14700159	-0.7813135	0.0507513	-0.22017392	0.01837599	0.02442028	-7.01395668	0.52643334	0.15530915
1.98	1.29244891	-4.10684602	0.87288402	0.07303809	1.10285269	0.86862807	-30.83976083	18.73546586	-13.10738659	2.01214591	14.05357523	21.61762999	-47.1251968	18.21283031	48.3555861	0	34.32	30.42326055	-1.1607173	0.02350527	-0.06845562	0.01054601	0.25184302	-0.53734343	0.11359751	0.29628518	-0.61578869	0.13232893	0.29628518	-0.84719851	0.13232893	0.22221389	-0.84719851	0.13232893	0.14814259	-0.76875549	0.05679875	-0.22076008	0.01942058	0.02387548	-7.0326297	0.55635864	0.15184433
1.99	1.27973871	-4.14043797	0.86322649	0.07276597	1.10263756	0.86878799	-30.52041861	18.22044602	-11.67761512	1.34372672	14.44756333	21.15598294	-51.52712996	18.81654243	51.46365226	0	34.32	30.42326055	-1.1607173	0.02330033	-0.06583779	0.00867084	0.24964715	-0.5167947	0.09339883	0.29370181	-0.59224012	0.10879964	0.29370181	-0.81480052	0.10879964	0.22027636	-0.81480052	0.10879964	0.14685091	-0.73935727	0.04669942	-0.22082782	0.01729026	0.02619024	-7.03478758	0.49532942	0.16656584
2	1.27783083	-4.15203194	0.85239878	0.07251417	1.1023392	0.86883817	-30.13742041	17.6938725	-11.00088617	0.96264915	14.0847499	20.99440061	-51.77876547	19.46048981	51.42914417	0	34.32	30.42326055	-1.1607173	0.02426309	-0.06436279	0.00858151	0.25996252	-0.50521668	0.09243667	0.3058375	-0.57897185	0.10767883	0.3058375	-0.79654612	0.10767883	0.22937813	-0.79654612	0.10767883	0.15291875	-0.72279306	0.04621834	-0.2221237	0.01692412	0.02612103	-7.0760698	0.48484025	0.16612564
2.01	1.25727521	-4.17664595	0.83876537	0.07223608	1.10206389	0.86901191	-29.68813336	17.0323471	-10.07447628	0.4318605	13.77355176	20.74956243	-52.81813428	20.27845438	51.82549448	0	34.32	30.42326055	-1.1607173	0.02411455	-0.06160213	0.00756962	0.25837102	-0.48354685	0.08153699	0.30396516	-0.5541385	0.09498187	0.30396516	-0.76238054	0.09498187	0.22797387	-0.76238054	0.09498187	0.15198258	-0.69179091	0.0407685	-0.22200461	0.0159296	0.02706084	-7.07227602	0.45634943	0.17210273
2.02	1.22431322	-4.15312102	0.81569472	0.07187893	1.10174806	0.86918858	-29.04543751	16.38516707	-10.05118428	0.37985295	12.27932646	20.88739327	-48.70189928	20.95290618	45.88037409	0	34.32	30.42326055	-1.1607173	0.02477523	-0.06022734	0.00862363	0.26544975	-0.47275537	0.09289037	0.31229305	-0.5417716	0.10820734	0.31229305	-0.74536623	0.10820734	0.23421979	-0.74536623	0.10820734	0.15614653	-0.67635197	0.04644519	-0.22270023	0.01832645	0.02665219	-7.09443594	0.52501412	0.16950378
2.03	1.20631741	-4.11444173	0.83939795	0.07176494	1.1014782	0.86929084	-28.27351977	15.62103204	-10.26406408	0.45467369	10.2063782	21.15727596	-42.74727966	22.20370255	42.89113915	0	34.32	30.42326055	-1.1607173	0.00952562	-0.05309157	0.00868502	0.10206051	-0.41674308	0.09355161	0.12007089	-0.47758224	0.1089776	0.12007089	-0.65705488	0.1089776	0.09005317	-0.65705488	0.1089776	0.06003545	-0.59621746	0.0467758	-0.20201408	0.00923071	0.02221721	-6.43544899	0.26444035	0.14129798
2.04	1.22380252	-4.13727078	0.81103616	0.07144555	1.10108047	0.86926532	-27.87316061	15.09032663	-9.92405437	0.22223804	9.496018	21.11622301	-41.32205788	22.56096907	41.5195614	0	34.32	30.42326055	-1.1607173	0.01581383	-0.0535035	0.00901023	0.16943445	-0.41997652	0.09705467	0.19933415	-0.48128772	0.1130583	0.19933415	-0.66215286	0.1130583	0.14950062	-0.66215286	0.1130583	0.09966708	-0.60084341	0.04852733	-0.21201313	0.01050893	0.02183615	-6.75398319	0.30105857	0.13887449
2.05	1.15950409	-4.11283386	0.7284305	0.07097845	1.10070348	0.86958197	-27.80225773	13.48262595	-6.899025	-2.21366219	11.7310418	19.99350676	-54.30682261	24.23245176	50.81914955	0	34.32	30.42326055	-1.1607173	0.0273268	-0.05323866	0.00711556	0.29278804	-0.41789767	0.07664603	0.34445568	-0.47890538	0.08928442	0.34445568	-0.65887524	0.08928442	0.25834176	-0.65887524	0.08928442	0.17222784	-0.59786928	0.03832301	-0.22344633	0.0157812	0.02367034	-7.11820424	0.45209815	0.15053964
2.06	1.13956206	-4.08354118	0.69395873	0.07069363	1.10033851	0.86969494	-27.35077473	12.37030408	-6.29222569	-3.00873294	11.03277083	19.89397846	-54.094832	25.42426789	49.94544466	0	34.32	30.42326055	-1.1607173	0.02781868	-0.05128512	0.01471131	0.29805821	-0.4025633	0.1584644	0.35065586	-0.46133239	0.18459406	0.35065586	-0.63469843	0.18459406	0.26299189	-0.63469843	0.18459406	0.17532793	-0.57593103	0.0792322	-0.22282488	0.01647384	0.01471694	-7.09840696	0.47194076	0.09359743
2.07	1.15812169	-4.03680722	0.62950709	0.07034428	1.09987738	0.86957282	-26.98901088	11.31273865	-6.02042122	-3.69957774	10.20004576	19.92042189	-53.11714896	26.49165012	49.31125284	0	34.32	30.42326055	-1.1607173	0.03109169	-0.05085981	0.01327791	0.33312632	-0.39922484	0.14302439	0.39191235	-0.45750655	0.1666081	0.39191235	-0.62943486	0.1666081	0.29393427	-0.62943486	0.1666081	0.19595618	-0.57115482	0.07151219	-0.22364794	0.01545824	0.01438064	-7.12462679	0.44284607	0.09145864
2.08	1.19095964	-3.96310303	0.5701462	0.06996761	1.09944821	0.86933474	-26.81432582	10.1285337	-5.45353981	-4.75551763	9.99955644	19.84889501	-53.92602588	27.74438903	45.62889744	0	34.32	30.42326055	-1.1607173	0.03170454	-0.05397578	0.01019951	0.33969256	-0.42368367	0.10986509	0.39963733	-0.48553606	0.12798107	0.39963733	-0.6679977	0.12798107	0.299728	-0.6679977	0.12798107	0.19981867	-0.60614708	0.05493255	-0.22167048	0.01911045	0.01573072	-7.06163182	0.54747413	0.10004492
2.09	1.25723199	-3.87411523	0.46543592	0.06932885	1.09900357	0.86893801	-26.78070042	8.93648862	-4.96787938	-5.89743965	10.00001767	19.83103195	-55.40799303	28.92960604	45.98498372	0	34.32	30.42326055	-1.1607173	0.03439697	-0.05826632	0.00937061	0.36854011	-0.45736238	0.10093649	0.43357554	-0.52413143	0.1175802	0.43357554	-0.72109699	0.1175802	0.32518165	-0.72109699	0.1175802	0.21678777	-0.65432985	0.05046824	-0.22078144	0.02264089	0.01431634	-7.03331011	0.64861361	0.09104967
2.1	1.27909114	-3.81928587	0.36283047	0.06886432	1.09855695	0.86883184	-26.87914912	7.61344346	-4.68996041	-7.16959618	9.99840355	19.94487922	-56.56510814	30.1836796	49.54259001	0	34.32	30.42326055	-1.1607173	0.03835525	-0.05894932	0.00957317	0.41095041	-0.46272357	0.1031184	0.48346988	-0.53027529	0.1201219	0.48346988	-0.72954967	0.1201219	0.36260241	-0.72954967	0.1201219	0.24173494	-0.66199989	0.0515592	-0.22021059	0.02292107	0.01274642	-7.01512496	0.65664028	0.08106522
2.11	1.28270316	-3.82867509	0.23637438	0.06811652	1.09804976	0.86891043	-26.74686164	6.30835598	-3.96233637	-8.41015613	10.00030355	19.92649961	-58.01359918	31.49800514	48.48386082	0	34.32	30.42326055	-1.1607173	0.04159478	-0.06127769	0.00931783	0.44565981	-0.48100015	0.100368	0.52430438	-0.55122001	0.11691797	0.52430438	-0.7583653	0.11691797	0.39322828	-0.7583653	0.11691797	0.26215219	-0.68814744	0.050184	-0.2186313	0.02540427	0.01282185	-6.96481426	0.72777862	0.08154494
2.12	1.47409443	-3.80366789	0.12988745	0.06751649	1.09750336	0.86771669	-27.32453937	5.88854771	-4.91758482	-8.85052417	9.997657	20.37469875	-56.27048422	31.37870496	44.63065054	0	34.32	30.42326055	-1.1607173	0.0421804	-0.06555538	0.00923155	0.45193433	-0.51457793	0.09943859	0.53168614	-0.58969973	0.11583531	0.53168614	-0.81130547	0.11583531	0.39876461	-0.81130547	0.11583531	0.26584307	-0.73618582	0.04971929	-0.21483889	0.0215014	0.01065508	-6.84400167	0.61596961	0.06776464
2.13	1.26414658	-4.02317829	0.03916651	0.06689172	1.09727182	0.86943779	-26.32171008	3.52966015	-2.1423283	-11.03178031	9.99908045	19.90032767	-60.53206921	34.31710147	46.84743553	0	34.32	30.42326055	-1.1607173	0.04274134	-0.06428651	0.01033622	0.45794441	-0.50461795	0.11133763	0.53875681	-0.57828571	0.12969642	0.53875681	-0.79560213	0.12969642	0.40406761	-0.79560213	0.12969642	0.26937841	-0.72193647	0.05566882	-0.21232703	0.02959032	0.01189337	-6.76398269	0.84770031	0.07563996
